HIERARCHY
ROOT Hips
{
  OFFSET -12.756 4.201 -301.268
  CHANNELS 6 Xposition Yposition Zposition Zrotation Xrotation Yrotation
  JOINT LeftUpLeg
  {
    OFFSET 7.899 -7.692 2.125
    CHANNELS 6 Xposition Yposition Zposition Zrotation Xrotation Yrotation
    JOINT LeftLeg
    {
      OFFSET 0.000 -50.702 0.000
      CHANNELS 6 Xposition Yposition Zposition Zrotation Xrotation Yrotation
      JOINT LeftFoot
      {
        OFFSET -0.000 -40.460 -0.000
        CHANNELS 6 Xposition Yposition Zposition Zrotation Xrotation Yrotation
        End Site
        {
          OFFSET -0.000 -10.470 6.045
        }
      }
    }
  }
  JOINT RightUpLeg
  {
    OFFSET -7.723 -7.565 1.215
    CHANNELS 6 Xposition Yposition Zposition Zrotation Xrotation Yrotation
    JOINT RightLeg
    {
      OFFSET 0.000 -49.523 0.000
      CHANNELS 6 Xposition Yposition Zposition Zrotation Xrotation Yrotation
      JOINT RightFoot
      {
        OFFSET -0.000 -41.129 -0.000
        CHANNELS 6 Xposition Yposition Zposition Zrotation Xrotation Yrotation
        End Site
        {
          OFFSET 0.000 -7.923 4.574
        }
      }
    }
  }
  JOINT Spine
  {
    OFFSET 0.000 6.290 -6.290
    CHANNELS 6 Xposition Yposition Zposition Zrotation Xrotation Yrotation
    JOINT LeftShoulder
    {
      OFFSET -0.000 32.735 0.000
      CHANNELS 6 Xposition Yposition Zposition Zrotation Xrotation Yrotation
      JOINT LeftArm
      {
        OFFSET 19.156 0.000 -0.000
        CHANNELS 6 Xposition Yposition Zposition Zrotation Xrotation Yrotation
        JOINT LeftForeArm
        {
          OFFSET 27.054 0.000 0.000
          CHANNELS 6 Xposition Yposition Zposition Zrotation Xrotation Yrotation
          JOINT LeftHand
          {
            OFFSET 27.562 0.000 -0.000
            CHANNELS 6 Xposition Yposition Zposition Zrotation Xrotation Yrotation
            JOINT LeftHandThumb1
            {
            OFFSET 4.970 -0.620 3.390
            CHANNELS 6 Xposition Yposition Zposition Zrotation Xrotation Yrotation
              JOINT LeftHandThumb2
              {
              OFFSET 2.150 -0.000 0.000
              CHANNELS 6 Xposition Yposition Zposition Zrotation Xrotation Yrotation
                JOINT LeftHandThumb3
                {
                OFFSET 2.200 -0.000 0.000
                CHANNELS 6 Xposition Yposition Zposition Zrotation Xrotation Yrotation
                  JOINT LeftHandThumb4
                  {
                  OFFSET 1.700 -0.000 0.000
                  CHANNELS 6 Xposition Yposition Zposition Zrotation Xrotation Yrotation
                  }
                }
              }
            }
            JOINT LeftHandIndex1
            {
            OFFSET 8.730 0.680 2.070
            CHANNELS 6 Xposition Yposition Zposition Zrotation Xrotation Yrotation
              JOINT LeftHandIndex2
              {
              OFFSET 2.670 -0.000 0.000
              CHANNELS 6 Xposition Yposition Zposition Zrotation Xrotation Yrotation
                JOINT LeftHandIndex3
                {
                OFFSET 2.130 -0.000 0.000
                CHANNELS 6 Xposition Yposition Zposition Zrotation Xrotation Yrotation
                  JOINT LeftHandIndex4
                  {
                  OFFSET 1.800 -0.000 0.000
                  CHANNELS 6 Xposition Yposition Zposition Zrotation Xrotation Yrotation
                  }
                }
              }
            }
            JOINT LeftHandMiddle1
            {
            OFFSET 9.220 0.670 0.550
            CHANNELS 6 Xposition Yposition Zposition Zrotation Xrotation Yrotation
              JOINT LeftHandMiddle2
              {
              OFFSET 2.660 -0.000 0.000
              CHANNELS 6 Xposition Yposition Zposition Zrotation Xrotation Yrotation
                JOINT LeftHandMiddle3
                {
                OFFSET 2.280 -0.000 0.000
                CHANNELS 6 Xposition Yposition Zposition Zrotation Xrotation Yrotation
                  JOINT LeftHandMiddle4
                  {
                  OFFSET 1.500 -0.000 0.000
                  CHANNELS 6 Xposition Yposition Zposition Zrotation Xrotation Yrotation
                  }
                }
              }
            }
            JOINT LeftHandRing1
            {
            OFFSET 9.250 0.670 -1.130
            CHANNELS 6 Xposition Yposition Zposition Zrotation Xrotation Yrotation
              JOINT LeftHandRing2
              {
              OFFSET 2.470 -0.000 0.000
              CHANNELS 6 Xposition Yposition Zposition Zrotation Xrotation Yrotation
                JOINT LeftHandRing3
                {
                OFFSET 2.210 -0.000 0.000
                CHANNELS 6 Xposition Yposition Zposition Zrotation Xrotation Yrotation
                  JOINT LeftHandRing4
                  {
                  OFFSET 1.800 -0.000 0.000
                  CHANNELS 6 Xposition Yposition Zposition Zrotation Xrotation Yrotation
                  }
                }
              }
            }
            JOINT LeftHandPinky1
            {
            OFFSET 9.350 0.660 -2.720
            CHANNELS 6 Xposition Yposition Zposition Zrotation Xrotation Yrotation
              JOINT LeftHandPinky2
              {
              OFFSET 1.630 -0.000 0.000
              CHANNELS 6 Xposition Yposition Zposition Zrotation Xrotation Yrotation
                JOINT LeftHandPinky3
                {
                OFFSET 1.710 -0.000 0.000
                CHANNELS 6 Xposition Yposition Zposition Zrotation Xrotation Yrotation
                  JOINT LeftHandPinky4
                  {
                  OFFSET 1.800 -0.000 0.000
                  CHANNELS 6 Xposition Yposition Zposition Zrotation Xrotation Yrotation
                  }
                }
              }
            }
          }
        }
      }
    }
    JOINT RightShoulder
    {
      OFFSET -0.000 32.735 0.000
      CHANNELS 6 Xposition Yposition Zposition Zrotation Xrotation Yrotation
      JOINT RightArm
      {
        OFFSET -18.254 0.000 -0.000
        CHANNELS 6 Xposition Yposition Zposition Zrotation Xrotation Yrotation
        JOINT RightForeArm
        {
          OFFSET -28.101 0.000 0.000
          CHANNELS 6 Xposition Yposition Zposition Zrotation Xrotation Yrotation
          JOINT RightHand
          {
            OFFSET -27.892 -0.000 -0.000
            CHANNELS 6 Xposition Yposition Zposition Zrotation Xrotation Yrotation
            JOINT RightHandThumb1
            {
            OFFSET -4.970 -0.620 3.390
            CHANNELS 6 Xposition Yposition Zposition Zrotation Xrotation Yrotation
              JOINT RightHandThumb2
              {
              OFFSET -2.150 0.000 0.000
              CHANNELS 6 Xposition Yposition Zposition Zrotation Xrotation Yrotation
                JOINT RightHandThumb3
                {
                OFFSET -2.200 0.000 0.000
                CHANNELS 6 Xposition Yposition Zposition Zrotation Xrotation Yrotation
                  JOINT RightHandThumb4
                  {
                  OFFSET -1.700 0.000 0.000
                  CHANNELS 6 Xposition Yposition Zposition Zrotation Xrotation Yrotation
                  }
                }
              }
            }
            JOINT RightHandIndex1
            {
            OFFSET -8.730 0.680 2.070
            CHANNELS 6 Xposition Yposition Zposition Zrotation Xrotation Yrotation
              JOINT RightHandIndex2
              {
              OFFSET -2.670 0.000 0.000
              CHANNELS 6 Xposition Yposition Zposition Zrotation Xrotation Yrotation
                JOINT RightHandIndex3
                {
                OFFSET -2.130 0.000 0.000
                CHANNELS 6 Xposition Yposition Zposition Zrotation Xrotation Yrotation
                  JOINT RightHandIndex4
                  {
                  OFFSET -1.800 0.000 0.000
                  CHANNELS 6 Xposition Yposition Zposition Zrotation Xrotation Yrotation
                  }
                }
              }
            }
            JOINT RightHandMiddle1
            {
            OFFSET -9.220 0.670 0.550
            CHANNELS 6 Xposition Yposition Zposition Zrotation Xrotation Yrotation
              JOINT RightHandMiddle2
              {
              OFFSET -2.660 0.000 0.000
              CHANNELS 6 Xposition Yposition Zposition Zrotation Xrotation Yrotation
                JOINT RightHandMiddle3
                {
                OFFSET -2.280 0.000 0.000
                CHANNELS 6 Xposition Yposition Zposition Zrotation Xrotation Yrotation
                  JOINT RightHandMiddle4
                  {
                  OFFSET -1.500 0.000 0.000
                  CHANNELS 6 Xposition Yposition Zposition Zrotation Xrotation Yrotation
                  }
                }
              }
            }
            JOINT RightHandRing1
            {
            OFFSET -9.250 0.670 -1.130
            CHANNELS 6 Xposition Yposition Zposition Zrotation Xrotation Yrotation
              JOINT RightHandRing2
              {
              OFFSET -2.470 0.000 0.000
              CHANNELS 6 Xposition Yposition Zposition Zrotation Xrotation Yrotation
                JOINT RightHandRing3
                {
                OFFSET -2.210 0.000 0.000
                CHANNELS 6 Xposition Yposition Zposition Zrotation Xrotation Yrotation
                  JOINT RightHandRing4
                  {
                  OFFSET -1.800 0.000 0.000
                  CHANNELS 6 Xposition Yposition Zposition Zrotation Xrotation Yrotation
                  }
                }
              }
            }
            JOINT RightHandPinky1
            {
            OFFSET -9.350 0.660 -2.720
            CHANNELS 6 Xposition Yposition Zposition Zrotation Xrotation Yrotation
              JOINT RightHandPinky2
              {
              OFFSET -1.630 0.000 0.000
              CHANNELS 6 Xposition Yposition Zposition Zrotation Xrotation Yrotation
                JOINT RightHandPinky3
                {
                OFFSET -1.710 0.000 0.000
                CHANNELS 6 Xposition Yposition Zposition Zrotation Xrotation Yrotation
                  JOINT RightHandPinky4
                  {
                  OFFSET -1.800 0.000 0.000
                  CHANNELS 6 Xposition Yposition Zposition Zrotation Xrotation Yrotation
                  }
                }
              }
            }
          }
        }
      }
    }
    JOINT Neck
    {
      OFFSET -0.000 32.735 0.000
      CHANNELS 6 Xposition Yposition Zposition Zrotation Xrotation Yrotation
      JOINT Head
      {
        OFFSET -0.000 23.966 -0.000
        CHANNELS 6 Xposition Yposition Zposition Zrotation Xrotation Yrotation
        End Site
        {
          OFFSET -0.000 0.096 -0.000
        }
      }
    }
  }
}
MOTION
Frames:	4
Frame Time:	0.0333333
-12.3485 3.13403 -305.126 -2.19497 -6.77341 -5.83837 7.56484 -6.66244 2.29213 7.17583 2.62383 -4.41068 1.19209e-05 -50.4426 0 -9.00939 4.55992 0.722188 2.98023e-06 -40.5301 -2.38419e-05 35.1637 -1.7548 25.1915 -7.04283 -6.92159 1.24235 -2.08116 -2.77981 -4.57112 1.19209e-05 -49.9328 7.15256e-05 4.07821 14.5948 1.76448e-06 -5.96046e-06 -41.0838 0 4.12899 -26.3792 3.54477 -2.98023e-06 6.60186 -6.60183 2.299 -5.70592 -2.37755 5.96046e-06 32.7349 0 -25.2727 1.70755e-05 -16.1126 17.7835 -4.17233e-05 4.76837e-05 -3.51632 -8.81839 -54.9328 28.919 2.38419e-05 -2.38419e-05 2.07458e-06 -4.26887e-06 -38.1624 26.9436 0 -2.38419e-05 14.3485 -0.126834 -9.93343 0.0062 0.0497 0.0339 -31.9896 0 0 0 0.0215 0 0 -31.9896 0 0 0.022 0 0 -31.9896 0 0 0.017 0 0 0 0 -0.0068 0.0873 0.0207 -31.9896 0 0 0 0.0267 0 -56.8704 0 0 0 0.0213 0 -63.9792 0 0 0 0.018 0 0 0 0 -0.0067 0.0922 0.0055 -31.9896 0 0 0 0.0266 0 -56.8704 0 0 0 0.0228 0 -63.9792 0 0 0 0.015 0 0 0 0 -0.0067 0.0925 -0.0113 -31.9896 0 0 0 0.0247 0 -56.8704 0 0 0 0.0221 0 -63.9792 0 0 0 0.018 0 0 0 0 -0.0066 0.0935 -0.0272 -31.9896 0 0 0 0.0163 0 -56.8704 0 0 0 0.0171 0 -63.9792 0 0 0 0.018 0 0 0 0 5.96046e-06 32.7349 0 15.4818 4.26887e-06 16.9367 -16.9417 -1.19209e-05 7.15256e-05 20.6193 -3.72273 57.774 -29.9785 -2.38419e-05 -1.19209e-05 1.29197e-05 -4.48231e-06 44.9522 -29.7527 -1.19209e-05 1.19209e-05 -5.56897 -0.0541302 9.19325 -0.0062 0.0497 0.0339 42.6474 0 0 0 0.0215 0 0 -42.6474 0 0 0.022 0 0 -42.6474 0 0 0.017 0 0 0 0 0.0068 0.0873 0.0207 42.6474 0 0 0 0.0267 0 75.8176 0 0 0 0.0213 0 85.2948 0 0 0 0.018 0 0 0 0 0.0067 0.0922 0.0055 42.6474 0 0 0 0.0266 0 75.8176 0 0 0 0.0228 0 85.2948 0 0 0 0.015 0 0 0 0 0.0067 0.0925 -0.0113 42.6474 0 0 0 0.0247 0 75.8176 0 0 0 0.0221 0 85.2948 0 0 0 0.018 0 0 0 0 0.0066 0.0935 -0.0272 42.6474 0 0 0 0.0163 0 75.8176 0 0 0 0.0171 0 85.2948 0 0 0 0.018 0 0 0 0 5.96046e-06 32.7349 0 0.888135 1.47834 -0.0229144 -5.96046e-06 27.2234 -2.38419e-05 1.0352e-05 -1.10991e-05 0 
-12.5201 2.64583 -305.247 -2.2993 -6.32277 -5.89483 7.49546 -6.54454 2.30787 7.64015 2.18426 -4.5361 5.96046e-06 -49.9747 0 -9.31905 4.36173 0.715022 -5.96046e-06 -40.5691 2.38419e-05 35.2218 -1.64713 25.1794 -6.96166 -6.75318 1.23348 -1.86917 -3.25968 -4.80919 1.19209e-05 -49.6683 0 4.02766 14.4617 0 0 -41.0248 0 3.79572 -25.1257 3.27322 0 6.64791 -6.64794 2.40052 -5.94936 -2.23419 5.96046e-06 32.7349 2.38419e-05 -24.5807 1.45142e-05 -16.5431 17.784 2.38419e-05 2.38419e-05 -8.24761 -6.03545 -53.56 30.452 -1.78814e-05 1.04308e-05 -5.72052e-06 -1.43007e-05 -37.8927 26.2413 0 -2.38419e-05 13.8802 -0.14748 -11.4241 0.0062 0.0497 0.0339 -38.0864 0 0 0 0.0215 0 0 -38.0864 0 0 0.022 0 0 -38.0864 0 0 0.017 0 0 0 0 -0.0068 0.0873 0.0207 -38.0864 0 0 0 0.0267 0 -67.7092 0 0 0 0.0213 0 -76.1729 0 0 0 0.018 0 0 0 0 -0.0067 0.0922 0.0055 -38.0864 0 0 0 0.0266 0 -67.7092 0 0 0 0.0228 0 -76.1729 0 0 0 0.015 0 0 0 0 -0.0067 0.0925 -0.0113 -38.0864 0 0 0 0.0247 0 -67.7092 0 0 0 0.0221 0 -76.1729 0 0 0 0.018 0 0 0 0 -0.0066 0.0935 -0.0272 -38.0864 0 0 0 0.0163 0 -67.7092 0 0 0 0.0171 0 -76.1729 0 0 0 0.018 0 0 0 0 5.96046e-06 32.7349 2.38419e-05 15.2493 -3.41509e-06 17.737 -16.6217 1.19209e-05 -4.76837e-05 25.3884 -0.878834 52.8872 -30.2349 5.96046e-06 3.57628e-05 -1.9256e-06 -1.70755e-06 47.1749 -30.477 -1.19209e-05 -2.38419e-05 -5.62433 -0.0473641 8.99922 -0.0062 0.0497 0.0339 45 0 0 0 0.0215 0 0 -45 0 0 0.022 0 0 -45 0 0 0.017 0 0 0 0 0.0068 0.0873 0.0207 45 0 0 0 0.0267 0 80 0 0 0 0.0213 0 90 0 0 0 0.018 0 0 0 0 0.0067 0.0922 0.0055 45 0 0 0 0.0266 0 80 0 0 0 0.0228 0 90 0 0 0 0.015 0 0 0 0 0.0067 0.0925 -0.0113 45 0 0 0 0.0247 0 80 0 0 0 0.0221 0 90 0 0 0 0.018 0 0 0 0 0.0066 0.0935 -0.0272 45 0 0 0 0.0163 0 80 0 0 0 0.0171 0 90 0 0 0 0.018 0 0 0 0 5.96046e-06 32.7349 2.38419e-05 0.71187 1.12315 -0.0139533 -1.78814e-05 27.5952 4.76837e-05 1.02453e-05 -1.19528e-05 0 
-12.6789 2.18034 -305.332 -2.34088 -5.84683 -5.99286 7.40696 -6.44391 2.36397 7.95572 1.9024 -4.97649 5.96046e-06 -49.7976 4.76837e-05 -9.48631 3.84038 0.64121 0 -40.3179 2.38419e-05 35.3166 -1.40868 25.111 -6.87966 -6.61441 1.1893 -1.73754 -3.81168 -5.32118 0 -49.3829 0 3.91337 14.4079 4.40749e-06 0 -40.9734 -4.76837e-05 3.53093 -22.745 3.01244 5.96046e-06 6.70124 -6.70123 2.44014 -6.25912 -2.03954 0 32.7349 -2.38419e-05 -23.831 1.10991e-05 -16.9289 17.7692 0 -2.38419e-05 -13.5454 -3.2612 -51.6017 31.7018 5.96046e-06 5.96046e-06 1.16397e-05 -9.39151e-06 -36.3344 25.707 5.96046e-06 1.19209e-05 12.8277 -0.170098 -13.8717 0.0062 0.0497 0.0339 -42.647 0 0 0 0.0215 0 0 -42.647 0 0 0.022 0 0 -42.647 0 0 0.017 0 0 0 0 -0.0068 0.0873 0.0207 -42.647 0 0 0 0.0267 0 -75.8168 0 0 0 0.0213 0 -85.2939 0 0 0 0.018 0 0 0 0 -0.0067 0.0922 0.0055 -42.647 0 0 0 0.0266 0 -75.8168 0 0 0 0.0228 0 -85.2939 0 0 0 0.015 0 0 0 0 -0.0067 0.0925 -0.0113 -42.647 0 0 0 0.0247 0 -75.8168 0 0 0 0.0221 0 -85.2939 0 0 0 0.018 0 0 0 0 -0.0066 0.0935 -0.0272 -42.647 0 0 0 0.0163 0 -75.8168 0 0 0 0.0171 0 -85.2939 0 0 0 0.018 0 0 0 0 0 32.7349 -2.38419e-05 15.2194 1.70755e-06 18.5333 -16.2783 2.38419e-05 -2.38419e-05 27.933 1.03432 49.1934 -30.8482 5.96046e-06 1.19209e-05 4.62331e-07 -4.26887e-07 47.2826 -29.2189 5.96046e-06 1.19209e-05 1.97796 0.353375 7.45919 -0.0062 0.0497 0.0339 45 0 0 0 0.0215 0 0 -45 0 0 0.022 0 0 -45 0 0 0.017 0 0 0 0 0.0068 0.0873 0.0207 45 0 0 0 0.0267 0 80 0 0 0 0.0213 0 90 0 0 0 0.018 0 0 0 0 0.0067 0.0922 0.0055 45 0 0 0 0.0266 0 80 0 0 0 0.0228 0 90 0 0 0 0.015 0 0 0 0 0.0067 0.0925 -0.0113 45 0 0 0 0.0247 0 80 0 0 0 0.0221 0 90 0 0 0 0.018 0 0 0 0 0.0066 0.0935 -0.0272 45 0 0 0 0.0163 0 80 0 0 0 0.0171 0 90 0 0 0 0.018 0 0 0 0 0 32.7349 -2.38419e-05 0.335791 0.911074 -0.00533505 -1.19209e-05 27.9485 2.38419e-05 9.8184e-06 -9.39151e-06 0 
-12.7586 1.97468 -305.416 -1.9377 -5.74664 -6.37035 7.33694 -6.49509 2.36135 7.64286 1.93367 -4.94889 0 -49.7616 -4.76837e-05 -9.53828 3.5061 0.588741 0 -40.1219 0 35.4421 -1.15492 25.0583 -6.88893 -6.54482 1.20139 -2.07847 -4.01853 -5.30266 1.19209e-05 -49.2421 2.38419e-05 3.85214 14.3721 8.81357e-07 -1.19209e-05 -40.9272 0 3.36303 -20.6686 2.82995 2.98023e-06 6.7157 -6.71573 2.06975 -6.32014 -1.60776 -5.96046e-06 32.7349 0 -21.5839 1.36604e-05 -17.0445 18.0228 -5.96046e-06 0 -14.9343 1.22319 -50.6847 32.0048 0 -1.78814e-05 9.60725e-06 1.44858e-05 -32.7176 25.1054 1.78814e-05 2.38419e-05 12.4688 -0.161752 -15.008 0.0062 0.0497 0.0339 -45 0 0 0 0.0215 0 0 -45 0 0 0.022 0 0 -45 0 0 0.017 0 0 0 0 -0.0068 0.0873 0.0207 -45 0 0 0 0.0267 0 -80 0 0 0 0.0213 0 -90 0 0 0 0.018 0 0 0 0 -0.0067 0.0922 0.0055 -45 0 0 0 0.0266 0 -80 0 0 0 0.0228 0 -90 0 0 0 0.015 0 0 0 0 -0.0067 0.0925 -0.0113 -45 0 0 0 0.0247 0 -80 0 0 0 0.0221 0 -90 0 0 0 0.018 0 0 0 0 -0.0066 0.0935 -0.0272 -45 0 0 0 0.0163 0 -80 0 0 0 0.0171 0 -90 0 0 0 0.018 0 0 0 0 -5.96046e-06 32.7349 0 15.3077 -1.70755e-06 19.1803 -16.0794 0 -2.38419e-05 28.3071 3.16492 48.062 -31.4969 1.19209e-05 0 -3.34599e-06 -2.98821e-06 44.1204 -29.902 0 1.78814e-05 3.29199 0.345655 7.25176 -0.0062 0.0497 0.0339 45 0 0 0 0.0215 0 0 -45 0 0 0.022 0 0 -45 0 0 0.017 0 0 0 0 0.0068 0.0873 0.0207 45 0 0 0 0.0267 0 80 0 0 0 0.0213 0 90 0 0 0 0.018 0 0 0 0 0.0067 0.0922 0.0055 45 0 0 0 0.0266 0 80 0 0 0 0.0228 0 90 0 0 0 0.015 0 0 0 0 0.0067 0.0925 -0.0113 45 0 0 0 0.0247 0 80 0 0 0 0.0221 0 90 0 0 0 0.018 0 0 0 0 0.0066 0.0935 -0.0272 45 0 0 0 0.0163 0 80 0 0 0 0.0171 0 90 0 0 0 0.018 0 0 0 0 -5.96046e-06 32.7349 0 -0.057249 1.04713 0.0010469 -5.96046e-06 28.0894 2.38419e-05 9.71167e-06 -9.39151e-06 -1.70755e-06 
